<svg xmlns="http://www.w3.org/2000/svg" version="1.1" xmlns:xlink="http://www.w3.org/1999/xlink" xmlns:svgjs="http://svgjs.dev/svgjs" width="2000" height="484" viewBox="0 0 2000 484"><g transform="matrix(1,0,0,1,-1.2112696095522324,0.599732175841865)"><svg viewBox="0 0 396 96" data-background-color="#35185a" preserveAspectRatio="xMidYMid meet" height="484" width="2000" xmlns="http://www.w3.org/2000/svg" xmlns:xlink="http://www.w3.org/1999/xlink"><g id="tight-bounds" transform="matrix(1,0,0,1,0.24008861730862918,-0.11895514231574111)"><svg viewBox="0 0 395.52 96.23767158481978" height="96.23767158481978" width="395.52"><g><svg viewBox="0 0 395.52 96.23767158481978" height="96.23767158481978" width="395.52"><g><svg viewBox="0 0 395.52 96.23767158481978" height="96.23767158481978" width="395.52"><g id="textblocktransform"><svg viewBox="0 0 395.52 96.23767158481978" height="96.23767158481978" width="395.52" id="textblock"><g><svg viewBox="0 0 395.52 96.23767158481978" height="96.23767158481978" width="395.52"><path d="M394.594 20.641C392.735 10.652 387.435 7.875 387.435 7.875 371.165-2.414 350.86-0.197 332.619 1.282 300.414 1.342 268.339 3.539 236.208 4.718 168.767 4.898 100.749 1.941 33.643 9.233 27.339 11.471-6.54 9.673 1.121 21.92 3.129 27.014 10.456 32.668 10.232 37.343 11.236 38.163 12.631 36.285 13.226 37.463 15.309 40.64 18.711 39.142 21.501 41.02 17.614 46.034 20.403 50.21 23.062 54.585 18.377 55.724 12.371 55.185 9.675 58.961 9.396 61.698 7.89 61.178 6.235 61.058 5.026 60.978 2.59 61.278 2.999 62.137 4.394 65.074-1.594 66.772 2.162 69.649-0.422 72.766 3.948 75.463 3.353 78.84 3.278 79.519 3.687 80.098 4.338 80.258 7.22 81.117 3.018 82.795 3.464 84.613 33.029 97.04 65.104 88.449 95.394 94.163 103.259 90.168 97.346 95.582 100.489 94.743 102.943 93.764 104.728 97.82 107.499 95.522 107.927 94.863 107.276 93.304 108.8 93.604 109.6 93.764 110.307 93.724 110.418 92.805 110.586 91.426 109.117 92.285 108.726 91.566 112.947 87.93 111.906 96.581 115.866 96.221 115.68 95.162 114.528 93.644 116.889 93.844 119.232 92.325 119.306 91.067 121.389 94.483 121.463 95.222 121.835 95.742 122.43 96.101 128.938 92.385 135.409 97.42 142.233 95.742 146.417 93.904 150.433 96.741 154.672 96.041 156.16 95.482 157.666 94.483 159.098 96.161 176.632 96.521 195.319 95.022 211.943 96.221 256.364 93.984 303.836 97.14 350.674 94.183 361.719 93.045 373.192 91.426 383.958 90.128 383.958 90.128 392.679 86.571 392.679 70.588S394.538 56.603 394.817 43.877C395.096 31.15 396.398 30.631 394.538 20.641Z" opacity="1" fill="#a437db" data-fill-palette-color="tertiary"></path><g transform="matrix(1,0,0,1,55.76832,26.230666666666668)"><svg width="283.98335999999995" viewBox="4.2 -35 227.04000000000002 35" height="43.77633825148644" data-palette-color="#35185a"><path d="M40.4-5L40.4 0 4.2 0 4.2-35 40.4-35 40.4-30 9.2-30 9.2-5 40.4-5ZM36.15-20L36.15-15 11.7-15 11.7-20 36.15-20ZM76-27.5L76-22.55 52.25-5 76-5 76 0 44.5 0 44.5-5 68.4-22.55 44.5-22.55 44.5-27.5 76-27.5ZM101.3-30L101.3 0 96.3 0 96.3-30 78.6-30 78.6-35 119-35 119-30 101.3-30ZM151.79-5.05L151.79 0 123.09 0 123.09-27.6 151.79-27.6 151.79-22.55 128.14-22.55 128.14-5.05 151.79-5.05ZM148.59-16.45L148.59-11.4 130.49-11.4 130.49-16.45 148.59-16.45ZM188.79-27.6L188.79 0 183.79 0 183.79-7.55 164.54-7.55 164.54-12.65 183.79-12.65 183.79-22.55 170.79-22.55Q168.34-22.55 166.34-21.35 164.34-20.15 163.14-18.18 161.94-16.2 161.94-13.75L161.94-13.75 161.94 0 156.89 0 156.89-13.75Q156.89-16.6 157.97-19.13 159.04-21.65 160.97-23.55 162.89-25.45 165.42-26.53 167.94-27.6 170.79-27.6L170.79-27.6 188.79-27.6ZM216.14-13.2L216.14 0 211.14 0 211.14-13.85Q211.14-16.25 209.96-18.23 208.79-20.2 206.81-21.38 204.84-22.55 202.39-22.55L202.39-22.55 200.99-22.55 200.99 0 195.99 0 195.99-27.5 202.39-27.5Q205.94-27.5 208.91-25.88 211.89-24.25 213.74-21.55L213.74-21.55Q215.64-24.25 218.51-25.88 221.39-27.5 224.84-27.5L224.84-27.5 231.24-27.5 231.24 0 226.24 0 226.24-22.55 224.84-22.55Q222.44-22.55 220.46-21.28 218.49-20 217.31-17.9 216.14-15.8 216.14-13.2L216.14-13.2Z" opacity="1" transform="matrix(1,0,0,1,0,0)" fill="#35185a" class="wordmark-text-0" data-fill-palette-color="quaternary" id="text-0"></path></svg></g></svg></g></svg></g></svg></g><g></g></svg></g><defs></defs></svg><rect width="395.52" height="96.23767158481978" fill="none" stroke="none" visibility="hidden"></rect></g></svg></g></svg>